# xmcd
#
# Track frame offsets: 
#        150
#        25734
#        49772
#        73048
#        96874
#        124292
#        157072
#        186534
#        214153
#        238880
#        262599
#        288100
#        317312
#
# Disc length: 4629 seconds
#
# Revision: 1
# Processed by: cddbd v1.5.2PL0 Copyright (c) Steve Scherf et al.
# Submitted via: ExactAudioCopy v0.95b4
#
DISCID=b912130d
DTITLE=Markus Heitz - Die Zwerge CD1
DYEAR=2006
DGENRE=Hörbuch
TTITLE0=01001 Die Zwerge
TTITLE1=01002 Die Zwerge
TTITLE2=01003 Die Zwerge
TTITLE3=01004 Die Zwerge
TTITLE4=01005 Die Zwerge
TTITLE5=01006 Die Zwerge
TTITLE6=01007 Die Zwerge
TTITLE7=01008 Die Zwerge
TTITLE8=01009 Die Zwerge
TTITLE9=01010 Die Zwerge
TTITLE10=01011 Die Zwerge
TTITLE11=01012 Die Zwerge
TTITLE12=01013 Die Zwerge
EXTD=gelesen von Johannes Steck
EXTT0=
EXTT1=
EXTT2=
EXTT3=
EXTT4=
EXTT5=
EXTT6=
EXTT7=
EXTT8=
EXTT9=
EXTT10=
EXTT11=
EXTT12=
PLAYORDER=
